<?xml version="1.0" standalone="no"?>
<!DOCTYPE svg PUBLIC "-//W3C//DTD SVG 20010904//EN"
 "http://www.w3.org/TR/2001/REC-SVG-20010904/DTD/svg10.dtd">
<svg version="1.0" xmlns="http://www.w3.org/2000/svg"
 width="886.000000pt" height="886.000000pt" viewBox="0 0 886.000000 886.000000"
 preserveAspectRatio="xMidYMid meet">

<g transform="translate(0.000000,886.000000) scale(0.100000,-0.100000)"
fill="#000000" stroke="none">
<path d="M4005 8658 c-187 -23 -522 -106 -572 -143 -38 -28 0 -25 149 9 238
55 377 76 578 88 218 12 548 -1 760 -32 74 -11 150 -20 168 -20 18 0 31 -4 28
-9 -3 -4 32 -11 77 -15 105 -8 276 -39 397 -72 239 -65 543 -216 827 -410 52
-35 99 -64 104 -64 52 0 -139 156 -324 264 -114 67 -295 154 -417 201 -172 66
-480 123 -587 110 -40 -5 -57 -3 -68 9 -33 33 -227 72 -435 86 -158 12 -584
10 -685 -2z"/>
<path d="M3249 8424 c-86 -16 -203 -67 -365 -158 -314 -177 -513 -313 -684
-470 -335 -307 -662 -714 -765 -951 -30 -67 -54 -117 -212 -425 -222 -436
-349 -789 -354 -987 -1 -32 -16 -121 -35 -198 -39 -167 -112 -507 -120 -566
-4 -29 -3 -39 5 -35 6 4 11 4 11 1 0 -21 -95 -234 -114 -255 -34 -38 -57 -73
-134 -211 -60 -108 -129 -212 -212 -320 -33 -44 -42 -111 -32 -251 11 -166 15
-175 241 -505 23 -34 68 -91 99 -125 31 -35 79 -89 106 -121 49 -57 118 -107
149 -107 8 0 19 -10 23 -22 4 -13 17 -38 30 -57 l23 -35 -47 -27 c-61 -35
-139 -118 -234 -249 -130 -180 -169 -270 -188 -436 -11 -101 3 -240 30 -299
10 -22 27 -62 39 -88 12 -28 29 -51 40 -54 20 -5 118 -113 103 -113 -5 0 -40
11 -78 25 -38 14 -106 30 -152 36 -74 9 -90 8 -150 -10 -73 -22 -172 -77 -233
-129 l-39 -34 0 -624 0 -624 353 0 354 0 53 88 c30 48 99 147 154 221 56 73
110 145 121 160 54 72 188 228 286 332 59 64 125 136 145 160 57 68 132 149
138 149 3 0 6 -13 6 -28 0 -16 9 -64 20 -107 11 -43 18 -80 16 -82 -2 -2 -6 8
-10 22 -4 14 -11 25 -16 25 -14 0 -14 1 20 -83 17 -42 30 -80 30 -85 0 -5 7
-12 15 -16 8 -3 15 -10 15 -16 0 -6 -4 -9 -8 -6 -9 5 174 -362 190 -381 6 -8
13 -12 15 -9 5 4 -56 155 -70 174 -41 53 -91 216 -181 587 -60 246 -93 355
-106 355 -4 0 -10 11 -12 25 -3 14 -1 25 5 25 6 0 6 4 -1 12 -9 13 -20 69 -28
157 -3 25 -7 55 -10 66 -4 13 -3 17 4 10 5 -5 22 -77 37 -160 15 -82 31 -158
36 -167 5 -10 30 -97 55 -195 61 -242 83 -314 93 -308 11 6 -21 157 -99 457
-52 201 -61 253 -65 345 -2 59 -13 162 -25 228 -11 66 -25 178 -31 250 -7 83
-16 133 -24 140 -9 6 -19 68 -30 170 -9 88 -18 176 -20 195 -5 34 -5 34 4 5 5
-16 12 -43 16 -59 3 -17 10 -25 15 -20 6 6 4 42 -5 90 -34 195 -58 466 -35
394 l8 -25 1 25 c0 14 -6 115 -14 225 -22 304 -20 578 7 763 12 83 23 150 26
148 2 -3 -2 -96 -9 -208 -11 -194 -6 -370 11 -352 9 11 30 375 39 662 4 127
10 205 17 210 6 4 18 88 27 187 27 287 115 778 169 940 31 93 384 815 551
1127 139 258 257 424 332 466 16 9 17 13 7 21 -10 6 6 24 63 67 43 33 121 93
175 134 54 41 119 90 145 108 35 25 45 36 36 45 -8 8 -17 7 -36 -3 -38 -20
-367 -270 -461 -349 -107 -92 -287 -300 -328 -381 -4 -8 38 32 93 90 55 58
101 108 101 113 0 4 5 7 10 7 6 0 -6 -24 -26 -52 -20 -29 -63 -102 -96 -161
-48 -86 -64 -107 -78 -102 -23 7 -37 -17 -194 -333 -249 -497 -379 -849 -436
-1177 -64 -367 -89 -529 -95 -605 -8 -119 -65 -503 -76 -516 -4 -5 -13 -66
-18 -135 -13 -160 -19 -187 -42 -194 -61 -20 -136 -254 -209 -654 -11 -63 -22
-116 -24 -118 -7 -7 -16 187 -16 342 0 125 4 177 19 232 22 87 13 113 -24 68
-42 -51 -50 -110 -49 -365 0 -177 5 -263 18 -350 10 -63 20 -151 23 -195 2
-44 6 -91 9 -105 l6 -25 12 24 c12 22 14 20 36 -40 13 -35 36 -85 52 -112 l27
-47 -22 -1 c-122 -6 -117 -7 -178 64 -63 75 -104 147 -167 292 -67 154 -111
296 -122 391 -9 83 -21 116 -37 101 -13 -14 -15 -130 -3 -186 18 -81 88 -287
120 -353 16 -32 27 -58 25 -58 -1 0 -70 65 -153 145 -147 142 -153 150 -262
326 -86 140 -113 193 -120 233 -5 28 -16 84 -24 124 -23 106 -21 140 7 151 13
5 35 33 51 62 16 30 52 88 80 129 28 41 87 145 132 230 45 85 87 154 93 153
15 -4 82 89 134 187 92 173 165 423 151 516 -3 24 -10 44 -14 44 -4 0 -15 -33
-24 -72 -9 -40 -23 -93 -31 -118 l-14 -45 4 70 c5 79 5 78 -43 -90 -14 -49
-33 -108 -44 -130 -10 -22 -16 -31 -12 -20 19 65 68 268 109 455 25 118 62
276 81 350 20 74 47 180 61 235 14 54 40 139 59 187 47 123 136 329 140 325 2
-2 -18 -59 -45 -128 -63 -160 -116 -317 -135 -399 -32 -133 -14 -130 30 5 43
130 116 325 214 570 50 127 105 268 122 314 65 184 145 330 299 546 186 261
517 608 745 780 118 90 433 291 590 377 114 63 243 117 298 124 25 4 46 10 46
14 0 15 -36 16 -101 4z m-1910 -4656 c-23 -148 -28 -454 -7 -422 4 6 13 83 19
172 7 89 15 159 18 157 4 -2 3 -45 -1 -97 -4 -51 -5 -172 -2 -268 6 -217 41
-747 54 -843 6 -38 9 -72 7 -74 -7 -7 -129 72 -134 87 -2 8 -9 22 -14 30 -35
55 -102 210 -125 289 -31 107 -35 58 43 471 45 242 61 312 93 415 19 63 48
135 54 135 1 0 -1 -24 -5 -52z m-89 -1299 c0 -7 8 -18 18 -25 11 -8 1 -7 -30
4 -25 9 -44 20 -42 24 8 12 54 9 54 -3z m144 -99 c47 -21 51 -26 40 -55 -6
-14 -10 -12 -24 10 -10 15 -31 36 -46 46 -37 24 -28 24 30 -1z m-341 -71 c55
-29 50 -55 -28 -166 -22 -31 -113 -33 -140 -3 -36 40 1 150 50 150 7 0 18 7
25 15 15 18 63 20 93 4z m436 -254 c1 -17 -1 -17 -9 -5 -5 8 -9 26 -9 40 0 23
1 23 9 5 5 -11 9 -29 9 -40z m-2 -107 c-3 -7 -5 -2 -5 12 0 14 2 19 5 13 2 -7
2 -19 0 -25z m-987 -719 c62 3 128 -17 135 -40 12 -37 -41 -101 -138 -168 -86
-59 -180 -43 -214 36 -19 47 -10 82 26 94 16 6 31 19 34 29 7 27 67 62 92 54
11 -3 40 -5 65 -5z"/>
<path d="M5055 8374 c-190 -27 -209 -32 -234 -61 l-23 -27 -87 12 c-229 30
-517 23 -726 -19 -344 -69 -918 -341 -1140 -540 -69 -62 -171 -179 -156 -179
5 0 74 43 152 96 243 163 426 244 784 347 463 134 770 177 1093 153 l123 -9
21 -41 c44 -87 158 -226 185 -226 7 0 27 -13 45 -29 29 -25 45 -30 113 -36 78
-7 82 -6 151 29 63 32 79 46 134 121 35 46 70 87 78 90 8 3 31 0 51 -6 20 -7
41 -13 48 -15 7 -2 17 -22 22 -46 32 -134 101 -295 153 -358 43 -53 216 -193
228 -185 6 3 10 15 10 26 0 10 7 19 15 19 31 0 159 51 192 76 52 40 129 65
160 53 51 -19 237 -175 352 -295 141 -147 270 -311 370 -471 40 -65 89 -143
108 -173 l34 -55 -5 40 c-3 22 -32 94 -65 160 -32 66 -75 154 -95 195 -45 94
-207 352 -224 358 -10 3 -10 -4 2 -33 9 -21 16 -40 16 -42 0 -3 -26 28 -57 68
-31 41 -82 103 -112 138 -31 35 -71 81 -88 103 -35 44 -160 143 -193 153 -22
7 -61 70 -79 127 -25 76 -146 179 -273 229 -74 30 -235 77 -285 85 -35 5 -43
3 -43 -9 0 -19 -36 -11 -44 9 -3 8 -12 14 -21 14 -8 0 -15 6 -15 14 0 30 -42
46 -120 46 -73 0 -77 1 -98 30 -24 31 -47 39 -55 18 -3 -10 -7 -10 -19 0 -9 7
-48 23 -88 37 -83 28 -151 30 -295 9z"/>
<path d="M6642 7873 c2 -10 44 -45 93 -78 114 -76 311 -270 439 -432 53 -67
153 -208 223 -315 70 -106 143 -209 163 -229 47 -46 146 -294 191 -474 17 -71
42 -165 54 -207 14 -49 19 -78 12 -81 -7 -2 -5 -20 5 -53 22 -67 34 -149 64
-433 23 -223 27 -303 9 -219 -4 18 -28 85 -55 148 -26 63 -53 144 -59 180 -44
235 -121 476 -211 665 -64 136 -102 188 -134 183 -28 -4 -33 -42 -9 -60 27
-19 53 -66 111 -198 84 -191 127 -336 201 -683 61 -283 90 -371 92 -281 1 38
1 38 9 10 25 -82 42 -308 55 -746 18 -559 29 -694 71 -825 38 -118 41 -79 20
240 -8 116 -17 314 -21 440 -15 632 -15 596 -1 530 l13 -60 2 55 c0 30 -6 114
-14 185 -8 72 -15 177 -15 236 0 235 -28 476 -85 727 -77 338 -89 382 -146
523 -72 174 -91 208 -128 222 -21 8 -38 30 -67 86 -51 100 -219 352 -317 474
-148 186 -355 377 -499 460 -54 31 -71 34 -66 10z"/>
<path d="M3832 7746 c-35 -23 -86 -69 -113 -101 -66 -76 -324 -344 -314 -325
4 8 15 23 23 33 8 9 13 19 11 21 -7 7 -304 -394 -410 -554 -99 -149 -175 -278
-167 -285 2 -3 33 43 69 101 125 204 179 284 316 466 115 152 125 135 13 -21
-235 -327 -436 -670 -504 -860 -42 -116 -24 -107 37 19 31 63 56 112 56 108 1
-4 -17 -54 -40 -110 -150 -378 -269 -711 -309 -867 -11 -46 -39 -122 -60 -170
-31 -68 -44 -87 -62 -89 -35 -5 -47 -22 -20 -28 12 -4 22 -9 22 -13 0 -5 -128
-353 -144 -391 -3 -8 -4 5 0 30 39 306 42 354 23 366 -21 13 -29 -14 -45 -142
-8 -71 -37 -255 -64 -409 -27 -154 -56 -332 -64 -395 -22 -160 -37 -1180 -23
-1525 12 -284 11 -261 9 -765 -3 -440 14 -661 68 -892 9 -43 16 -78 14 -78 -2
0 -21 35 -43 78 -44 87 -91 229 -120 359 -69 307 -102 447 -110 457 -4 6 -11
101 -14 210 -4 110 -11 204 -16 209 -7 7 -16 5 -27 -4 -15 -13 -16 -34 -11
-216 4 -114 3 -203 -2 -203 -5 0 -12 -7 -15 -16 -5 -14 -4 -15 9 -4 8 7 15 9
15 4 0 -5 5 -63 10 -129 6 -66 14 -255 20 -420 13 -400 45 -728 80 -821 19
-48 28 -8 19 81 -4 44 -15 152 -23 240 -9 88 -21 286 -26 440 -5 154 -12 309
-14 345 l-5 65 14 -60 c8 -33 27 -112 41 -175 15 -63 42 -161 60 -218 54 -166
155 -341 189 -328 7 2 18 -1 24 -7 16 -16 14 55 -3 140 -20 92 -64 396 -72
492 l-7 77 79 46 c105 61 177 97 243 119 70 25 71 25 64 -14 -7 -46 20 -107
48 -107 20 0 21 1 5 25 -37 56 -8 165 60 224 34 30 44 51 24 51 -21 0 -64 -35
-95 -78 -27 -37 -42 -47 -105 -68 -97 -33 -202 -86 -267 -135 -29 -21 -55 -39
-58 -39 -11 0 7 106 25 141 36 72 52 250 31 342 -10 42 -9 43 23 22 40 -26
168 -65 237 -71 68 -7 128 5 148 30 8 10 -13 12 -107 12 -102 0 -128 3 -201
28 -47 15 -95 35 -107 43 -13 8 -32 12 -43 8 -21 -6 -21 -4 -17 207 2 117 5
265 5 328 l1 115 30 -53 c95 -173 437 -582 487 -582 8 0 28 -11 44 -24 27 -23
28 -25 9 -31 -28 -9 -50 -56 -50 -107 0 -85 35 -90 46 -6 4 29 16 60 28 74
l21 24 45 -31 c25 -17 81 -49 125 -70 62 -29 203 -105 211 -113 1 0 4 -11 8
-22 l7 -22 -41 20 c-38 19 -70 19 -70 0 0 -5 13 -15 29 -21 41 -18 87 -70 101
-116 16 -52 34 -72 73 -79 36 -7 77 -40 103 -85 22 -38 35 -43 75 -29 40 14
74 -10 108 -76 16 -29 30 -45 38 -42 20 8 39 -39 24 -58 -10 -11 -8 -17 11
-30 15 -11 24 -12 29 -5 4 7 24 12 45 13 37 1 40 -2 67 -51 16 -29 33 -53 38
-53 6 0 34 22 62 48 29 27 66 57 84 67 34 20 27 22 100 -31 28 -20 46 -9 38
25 -11 51 127 191 189 191 8 0 19 7 24 16 9 15 22 15 178 0 93 -9 205 -21 249
-26 44 -6 95 -10 113 -10 18 0 31 -4 28 -9 -3 -4 3 -16 14 -26 37 -33 23 -100
-35 -168 -34 -40 -45 -67 -26 -67 17 0 96 90 108 123 17 45 16 94 -2 121 l-15
23 107 12 c60 7 139 19 176 27 124 28 362 133 452 199 17 12 41 25 55 30 66
19 229 128 282 189 15 17 28 26 28 19 0 -22 126 -53 217 -53 73 0 95 4 156 31
40 17 103 49 141 71 73 43 281 220 334 284 18 21 32 32 32 24 0 -8 -7 -87 -15
-175 -23 -258 -29 -497 -16 -620 15 -135 30 -210 41 -198 5 4 11 91 14 193 12
377 18 482 47 785 52 561 61 650 71 668 5 11 8 20 6 22 -14 12 -50 25 -57 21
-8 -5 -103 8 -143 20 -12 3 -18 0 -18 -10 0 -14 23 -24 108 -46 l43 -11 -5
-42 c-3 -23 -18 -132 -32 -242 -19 -141 -32 -207 -44 -225 -10 -14 -25 -43
-34 -65 -21 -48 -32 -61 -167 -184 -143 -131 -139 -127 -263 -189 -129 -65
-192 -76 -308 -54 -40 7 -81 14 -90 15 -12 1 -14 6 -7 18 12 23 12 49 0 49 -6
0 -36 -24 -68 -53 -32 -29 -96 -80 -143 -112 -47 -32 -110 -78 -140 -101 -61
-47 -317 -162 -434 -195 -160 -44 -504 -64 -693 -39 -39 5 -172 14 -295 20
-123 5 -241 12 -263 15 -28 3 -35 2 -24 -5 8 -5 66 -14 127 -21 109 -12 133
-21 92 -34 -21 -7 -106 -104 -123 -142 -8 -18 -13 -20 -33 -11 -37 17 -94 -5
-150 -57 -27 -25 -50 -41 -52 -36 -2 5 -17 29 -34 52 l-30 42 -59 -6 c-46 -4
-59 -2 -59 8 0 8 -6 18 -14 22 -8 4 -18 25 -24 45 -24 87 -90 133 -156 108
-26 -10 -31 -7 -67 33 -42 48 -86 72 -122 65 -20 -4 -22 -1 -19 34 3 25 -3 49
-16 72 -14 24 -18 43 -14 60 l7 26 58 -35 c32 -19 64 -35 71 -35 7 0 32 -13
57 -29 24 -16 70 -36 101 -45 31 -9 70 -28 87 -42 31 -26 144 -60 162 -48 30
18 -12 54 -65 54 -12 0 -40 13 -62 30 -21 16 -68 39 -104 50 -36 12 -81 31
-100 44 -19 13 -47 26 -61 30 -14 3 -41 16 -61 30 -19 13 -66 36 -104 51 -141
56 -438 233 -496 295 -10 11 -25 20 -33 20 -13 0 -65 61 -155 180 -14 18 -58
74 -98 124 -40 50 -99 132 -132 181 -32 50 -73 111 -92 137 l-33 47 3 358 c2
197 7 408 12 468 13 143 13 235 0 235 -5 0 -11 -21 -11 -47 -1 -40 -3 -35 -10
27 -8 79 -5 111 48 420 30 178 92 371 240 750 24 62 57 110 75 110 13 0 9 -22
-9 -42 -10 -12 -12 -18 -4 -18 7 0 10 -3 8 -7 -9 -15 -38 -235 -32 -241 10
-10 23 19 41 93 9 38 18 72 20 74 3 3 11 -4 18 -15 13 -18 26 -19 161 -16 142
4 237 -8 251 -30 3 -5 -2 -9 -12 -8 -34 4 -36 0 -15 -26 28 -35 26 -69 -4 -99
-40 -41 -103 -30 -158 29 -31 33 -33 33 -64 20 -43 -18 -98 -94 -122 -169 -12
-34 -23 -105 -27 -165 -5 -90 -3 -119 16 -195 46 -187 147 -333 276 -396 66
-33 109 -34 83 -3 -7 9 -36 31 -64 49 -97 61 -205 217 -205 294 0 49 18 71
100 126 119 81 177 79 205 -6 30 -91 84 -130 198 -144 44 -6 61 -3 86 11 17
10 31 21 31 24 0 4 16 25 36 48 39 47 72 54 113 26 43 -30 131 -126 131 -143
0 -13 2 -14 9 -1 7 9 9 2 7 -24 -4 -51 -27 -78 -131 -162 -82 -66 -95 -73
-157 -83 -37 -6 -83 -11 -102 -11 -40 0 -48 -14 -13 -24 69 -18 194 10 289 67
180 107 277 289 294 551 6 94 8 103 25 99 33 -9 21 18 -30 68 -40 41 -45 49
-27 49 12 0 55 -23 95 -50 41 -28 79 -50 84 -50 4 0 23 -16 41 -35 53 -56 76
-39 36 27 -12 19 -17 41 -14 55 4 15 -4 39 -26 74 -17 28 -27 49 -23 47 4 -2
31 -15 58 -29 60 -32 124 -53 132 -45 13 13 -36 50 -137 103 -119 64 -120 64
-102 70 6 3 9 9 6 15 -4 6 3 5 15 -2 12 -6 30 -10 39 -8 24 6 -33 35 -94 48
-27 6 -103 33 -169 59 -66 27 -146 57 -179 67 -32 10 -61 24 -63 31 -6 14 91
331 163 538 61 174 153 407 231 590 36 83 74 171 85 198 17 38 25 47 45 47 18
0 24 -4 19 -15 -35 -93 -116 -514 -137 -710 -6 -60 -22 -191 -35 -290 -13 -99
-27 -222 -30 -273 -4 -51 -10 -94 -13 -96 -4 -3 -31 2 -61 10 -63 16 -130 18
-130 4 0 -5 15 -10 33 -10 36 0 137 -27 151 -40 5 -5 10 -23 12 -41 5 -45 12
-48 26 -11 7 18 16 32 21 32 5 0 41 -11 79 -25 132 -48 127 -20 -6 32 -39 15
-74 31 -77 36 -18 26 18 366 82 762 13 81 75 326 126 503 l36 122 38 0 c21 0
86 -9 145 -21 58 -11 109 -18 112 -15 10 11 -74 39 -175 59 -57 11 -103 24
-103 29 0 40 197 635 263 793 82 199 97 226 148 281 52 54 59 84 22 84 -21 0
-94 -56 -124 -95 -27 -34 -120 -248 -176 -405 -24 -68 -49 -130 -55 -137 -6
-8 -68 -130 -139 -273 l-128 -260 -133 0 c-73 0 -144 -3 -156 -7 -22 -5 -24
-3 -22 28 3 52 1 59 -14 59 -8 0 -21 -19 -28 -42 l-15 -43 -69 -8 c-142 -16
-259 -38 -272 -51 -11 -11 -5 -12 35 -6 26 5 103 11 170 15 l121 7 -23 -81
c-35 -119 -91 -382 -119 -561 -20 -126 -33 -173 -66 -248 -22 -52 -62 -164
-87 -250 -26 -87 -48 -158 -48 -159 -1 -2 -108 13 -239 32 -288 43 -294 43
-302 10 -7 -29 -34 -56 -34 -34 0 19 70 273 165 599 43 146 78 290 80 320 2
40 23 104 78 240 110 272 113 279 247 480 160 241 247 358 335 450 85 88 97
102 240 280 59 74 119 145 132 158 12 13 23 28 23 35 0 7 14 24 32 39 53 43
28 40 -40 -6z m142 -1171 c-14 -44 -26 -81 -27 -82 -2 -1 -8 2 -15 6 -10 6 -4
26 24 85 20 42 38 75 40 73 2 -1 -8 -39 -22 -82z m-157 -132 c-3 -10 -42 -101
-87 -203 -140 -319 -276 -704 -341 -965 -22 -88 -42 -165 -44 -171 -2 -7 -15
-9 -29 -7 -33 7 -33 6 4 318 48 394 125 820 178 980 l17 50 80 6 c44 3 113 6
154 7 66 2 73 0 68 -15z m-1198 -830 c-22 -76 -49 -164 -58 -195 -11 -36 -21
-54 -28 -50 -7 5 10 70 55 207 73 224 96 251 31 38z m633 -331 l-16 -162 -35
6 c-20 4 -38 8 -40 10 -1 1 20 73 49 159 29 86 53 155 55 153 1 -2 -5 -76 -13
-166z m-743 -64 c-13 -46 -26 -68 -40 -68 -9 0 -5 12 26 84 21 50 30 40 14
-16z m669 -641 c11 -13 6 -41 -31 -157 -16 -51 -38 -70 -60 -51 -14 11 -12 23
17 104 43 123 50 133 74 104z"/>
<path d="M5115 7600 c-10 -12 -20 -28 -21 -38 -1 -9 -20 -62 -43 -117 -57
-135 -113 -299 -167 -483 -24 -84 -51 -166 -59 -183 -15 -28 -261 -645 -309
-772 -12 -34 -66 -177 -118 -317 -173 -460 -278 -815 -268 -900 1 -8 48 125
104 295 168 505 546 1494 531 1390 -3 -22 -14 -100 -25 -172 -10 -73 -22 -168
-26 -210 -3 -43 -12 -83 -19 -88 -11 -9 -29 -138 -90 -655 -26 -225 -37 -431
-33 -602 5 -167 11 -208 29 -208 4 0 39 -23 76 -51 66 -50 68 -53 73 -103 l5
-51 13 55 c22 95 82 683 97 960 3 58 8 147 11 198 4 59 3 92 -4 92 -5 0 -12
-6 -15 -14 -10 -25 -25 -166 -32 -286 -7 -124 -42 -533 -50 -590 -3 -19 -10
-84 -14 -143 -5 -60 -12 -111 -15 -114 -3 -3 -35 18 -71 47 l-65 52 0 196 c0
246 35 678 69 862 l9 45 1 -60 c4 -105 18 -33 36 175 33 403 71 642 152 965
60 241 143 501 222 694 28 69 51 131 51 138 0 19 -14 16 -35 -7z"/>
<path d="M5974 7450 c33 -164 38 -222 43 -520 4 -228 1 -420 -12 -697 l-18
-382 -24 -6 c-29 -7 -30 -25 -2 -25 21 0 22 -2 15 -97 -10 -148 -62 -485 -130
-848 -56 -299 -91 -474 -98 -480 -3 -4 -64 12 -134 35 -71 22 -134 38 -141 36
-17 -7 -17 -26 0 -26 6 0 69 -19 140 -42 l127 -42 0 -41 c0 -68 -7 -70 -96
-37 -101 38 -193 57 -206 44 -7 -7 -3 -12 11 -17 29 -9 27 -18 -13 -60 l-34
-36 -48 20 c-27 10 -68 27 -92 36 -63 26 -62 11 2 -25 45 -26 54 -35 45 -46
-9 -11 -6 -16 16 -24 14 -5 36 -10 48 -10 18 0 19 -2 7 -10 -13 -9 -12 -12 4
-22 11 -6 31 -23 44 -37 23 -25 23 -25 3 -33 -40 -15 -20 -25 67 -34 l87 -9
-1 -30 c-2 -39 -43 -103 -71 -111 -53 -15 -123 37 -123 91 0 8 -4 15 -10 15
-5 0 -10 -4 -10 -10 0 -5 -7 -10 -15 -10 -22 0 -89 -64 -129 -124 -47 -71 -76
-184 -83 -326 -5 -106 -3 -120 20 -181 52 -138 185 -299 247 -299 21 0 8 22
-66 110 -74 88 -151 218 -136 230 4 3 14 18 22 34 22 43 101 120 145 140 45
22 113 16 132 -10 7 -9 19 -41 28 -70 25 -85 77 -127 176 -139 59 -7 93 3 148
46 38 30 73 24 119 -22 23 -22 42 -45 42 -50 0 -5 4 -9 9 -9 5 0 19 -19 31
-42 25 -47 33 -114 19 -160 -7 -26 -6 -29 9 -24 39 14 -37 -37 -97 -64 -84
-39 -155 -60 -205 -60 -23 0 -48 -5 -56 -10 -13 -9 -13 -11 0 -20 42 -27 163
-2 300 62 91 43 222 172 249 243 11 29 31 69 45 89 33 49 50 130 50 246 1 78
-3 103 -20 138 l-22 42 37 -22 c60 -36 125 -100 138 -136 16 -44 15 -171 -3
-255 -8 -38 -14 -85 -13 -105 l1 -37 10 35 c5 19 18 51 28 70 14 28 48 130 85
257 4 14 33 10 66 -8 17 -9 24 -9 27 0 2 6 10 11 18 11 28 0 13 37 -35 84 -31
31 -51 60 -55 81 -4 18 -16 41 -27 51 -38 34 -38 53 -1 138 20 45 69 178 109
296 l74 215 -5 -325 c-3 -179 -12 -431 -21 -560 -17 -268 -19 -483 -5 -459 18
31 49 218 65 388 25 279 38 784 25 998 -7 133 -7 202 1 247 14 81 9 141 -11
141 -11 0 -21 -28 -36 -106 -29 -142 -87 -358 -134 -504 -56 -172 -133 -375
-142 -375 -12 0 -10 38 3 62 58 108 186 626 229 930 6 42 10 153 8 247 -2 93
0 172 4 176 4 4 27 -14 50 -40 24 -27 49 -53 57 -59 14 -11 45 -44 108 -115
l32 -36 1 31 c0 67 -101 208 -145 202 -17 -2 -35 10 -66 45 l-42 48 6 122 c3
67 11 192 18 277 20 277 -2 570 -60 768 -16 53 -32 110 -35 125 -5 20 -12 27
-24 25 -25 -5 -21 -63 15 -198 46 -169 57 -283 56 -545 -1 -202 -17 -502 -27
-513 -2 -2 -39 25 -83 60 -173 140 -496 358 -530 358 -17 0 -21 9 -38 91 -9
40 -20 78 -26 86 -8 9 -8 48 0 140 20 232 33 645 26 838 -10 308 -33 453 -78
493 -20 17 -20 16 -13 -18z m63 -1597 c-3 -10 -5 -4 -5 12 0 17 2 24 5 18 2
-7 2 -21 0 -30z m9 -252 c-8 -241 -11 -296 -36 -691 -11 -173 -23 -381 -25
-462 -3 -82 -8 -149 -11 -149 -12 -3 -184 74 -184 82 0 5 9 51 21 102 78 351
183 962 205 1197 4 41 8 82 10 90 1 8 3 21 3 28 1 7 6 10 12 6 8 -4 9 -64 5
-203z m87 168 c86 -44 455 -311 538 -390 l47 -44 -5 -125 c-4 -76 -1 -147 6
-179 20 -92 -34 -399 -149 -854 -33 -131 -60 -245 -60 -255 -1 -48 -15 -46
-126 19 -244 141 -299 170 -321 164 -20 -5 -21 -3 -11 31 5 20 7 47 3 61 -6
23 -4 24 27 18 l33 -7 -31 29 c-64 58 -69 181 -34 708 11 165 23 423 27 573 3
149 8 272 10 272 2 0 23 -10 46 -21z m-260 -1465 c152 -61 152 -61 155 -132
l3 -62 -83 38 c-46 21 -111 49 -146 62 -42 15 -61 27 -58 36 3 7 10 31 16 53
6 23 13 41 17 41 3 0 46 -16 96 -36z m147 -4 c0 -11 -4 -20 -10 -20 -5 0 -10
9 -10 20 0 11 5 20 10 20 6 0 10 -9 10 -20z m-214 -605 c8 -21 -58 -206 -78
-219 -13 -8 -21 -7 -29 1 -13 13 -6 42 38 157 28 72 56 96 69 61z"/>
<path d="M5090 6586 c-11 -23 -36 -115 -55 -202 -20 -87 -42 -188 -50 -224
-34 -152 -72 -535 -82 -835 -10 -300 22 -647 76 -827 11 -34 26 -89 35 -120
17 -58 31 -73 39 -40 3 9 6 -10 7 -43 1 -33 5 -69 9 -80 10 -25 16 14 31 180
12 142 20 208 25 203 2 -2 15 -68 29 -147 14 -79 28 -146 31 -149 26 -26 9
167 -27 303 -29 112 -24 197 37 615 27 178 30 230 16 230 -31 0 -138 -782
-142 -1037 -1 -65 3 -73 -40 84 -62 232 -89 582 -70 926 25 453 43 591 126
962 25 110 45 210 45 223 0 36 -20 25 -40 -22z"/>
<path d="M7321 6191 c48 -128 123 -490 158 -766 50 -394 56 -533 55 -1180 -1
-335 -9 -820 -18 -1077 -16 -447 -14 -600 6 -564 13 23 36 279 48 536 18 368
25 1478 10 1585 -7 50 -14 122 -16 160 -26 445 -55 694 -116 960 -48 211 -112
395 -137 395 -5 0 -1 -22 10 -49z"/>
<path d="M1881 4527 c-14 -14 -14 -74 1 -83 15 -10 38 24 38 57 0 29 -21 44
-39 26z"/>
<path d="M7257 4386 c-3 -8 -9 -145 -13 -303 -5 -217 -10 -293 -21 -309 -7
-12 -22 -66 -32 -120 -26 -136 -26 -136 -166 -671 -7 -29 -9 -53 -4 -53 12 0
72 121 100 201 12 35 44 150 70 254 26 105 48 181 48 170 8 -173 22 -418 27
-447 5 -32 3 -36 -13 -32 -11 3 -24 -1 -30 -8 -14 -18 -108 -443 -177 -808
-68 -356 -166 -1001 -166 -1090 0 -33 -4 -37 -52 -60 -29 -14 -97 -57 -153
-96 -55 -39 -115 -79 -134 -88 l-33 -18 -32 31 c-25 24 -45 33 -85 38 -28 3
-54 10 -57 14 -7 12 -54 11 -54 -1 0 -15 -121 -139 -158 -162 -56 -35 -122
-29 -216 18 -44 21 -95 54 -115 72 l-35 34 -49 -16 c-78 -25 -104 -23 -326 34
-81 21 -105 20 -84 -1 5 -5 64 -29 129 -52 130 -45 227 -55 292 -28 30 13 33
12 52 -12 11 -14 67 -48 124 -76 l103 -51 -31 -34 c-43 -47 -121 -223 -154
-351 l-28 -108 -43 79 c-180 330 -372 570 -581 726 -102 76 -256 165 -267 155
-10 -10 9 -27 162 -147 150 -118 263 -229 380 -375 83 -103 131 -179 260 -411
65 -115 127 -226 139 -246 l21 -38 511 0 510 0 2 107 c5 327 31 728 63 1008
11 92 56 436 64 490 43 277 122 717 174 975 16 80 41 206 57 280 15 74 30 139
34 143 4 5 10 -20 14 -55 25 -225 81 -464 127 -537 36 -58 39 -22 9 104 -90
379 -117 678 -129 1408 -5 298 -11 461 -18 468 -7 7 -12 6 -16 -5z m-394
-3393 c-3 -38 -7 -70 -10 -72 -2 -3 -16 7 -31 21 -15 14 -38 31 -51 38 -24 12
-24 13 29 46 30 19 57 34 62 34 4 0 5 -30 1 -67z m-132 -293 c55 -40 63 -82
24 -128 l-25 -30 -65 13 c-81 15 -115 43 -115 94 0 26 8 44 31 67 30 31 31 31
75 18 25 -7 58 -23 75 -34z"/>
<path d="M1839 4243 c-16 -42 -8 -127 13 -131 19 -4 23 9 32 101 6 53 5 57
-14 57 -13 0 -24 -10 -31 -27z"/>
<path d="M1817 3953 c-2 -5 -7 -73 -11 -153 -4 -80 -14 -246 -23 -370 -20
-287 -23 -833 -5 -945 33 -201 58 -200 43 1 -17 216 -13 627 9 974 21 330 24
440 14 478 -6 22 -19 29 -27 15z"/>
<path d="M2897 3843 c-18 -17 -4 -44 33 -63 90 -46 129 -5 41 43 -51 28 -63
31 -74 20z"/>
<path d="M723 3752 c-12 -8 -16 -24 -14 -59 1 -27 35 -32 45 -7 15 39 -5 82
-31 66z"/>
<path d="M7946 3640 c-14 -127 -25 -990 -16 -1165 17 -315 44 -528 76 -603 15
-36 44 -159 44 -188 0 -10 -13 -14 -45 -14 -48 0 -72 -23 -44 -41 24 -15 95
-10 110 7 13 16 2 90 -46 314 -40 191 -49 355 -52 1044 -3 612 -11 796 -27
646z"/>
<path d="M696 3555 c-9 -24 -7 -63 3 -69 13 -8 29 15 33 49 3 33 -25 49 -36
20z"/>
<path d="M6708 3103 c-23 -27 -232 -343 -251 -380 -73 -141 132 117 236 297
47 82 56 130 15 83z"/>
<path d="M5415 2910 c-10 -16 4 -30 31 -30 26 0 31 9 12 28 -15 15 -35 16 -43
2z"/>
<path d="M7736 2856 c-3 -36 -4 -101 0 -144 6 -73 5 -79 -13 -84 -20 -5 -48
-82 -101 -278 -63 -231 -119 -434 -162 -585 -92 -320 -205 -736 -245 -896 -21
-81 -84 -235 -84 -204 0 23 66 480 98 675 18 110 16 140 -9 140 -20 0 -58
-157 -90 -375 -46 -314 -117 -882 -125 -1002 l-7 -103 131 0 131 0 11 28 c17
41 23 238 10 319 -23 147 -69 261 -112 275 -12 4 -12 9 0 34 24 52 72 185 125
347 l52 159 65 28 c77 34 135 98 185 205 54 114 68 306 29 388 -9 19 -14 72
-16 160 -1 129 0 136 50 327 29 107 60 226 70 265 l18 69 11 -104 c7 -58 19
-170 28 -250 30 -280 79 -520 119 -590 l14 -25 1 30 c0 17 -9 66 -19 110 -22
90 -54 292 -71 435 -6 52 -21 187 -35 300 -13 113 -27 246 -31 295 -8 115 -19
135 -28 51z m-145 -1162 c6 -7 11 -62 12 -121 l2 -108 -43 -72 c-23 -39 -58
-85 -78 -101 -42 -35 -101 -68 -108 -61 -2 2 33 135 78 294 46 160 91 322 102
360 l19 70 3 -124 c1 -69 7 -130 13 -137z"/>
<path d="M6747 2854 c-4 -4 5 -20 18 -36 26 -31 45 -86 45 -130 0 -20 -8 -31
-30 -43 -50 -26 -101 -14 -144 34 -23 26 -36 27 -36 3 0 -27 81 -99 120 -107
30 -6 117 32 135 59 25 34 19 108 -10 142 -73 84 -84 92 -98 78z"/>
<path d="M6589 2798 c-37 -34 -59 -96 -59 -171 0 -18 -9 -43 -20 -57 -25 -32
-25 -40 0 -40 32 0 60 56 60 118 0 68 21 118 60 140 16 9 28 22 27 27 -7 21
-34 14 -68 -17z"/>
<path d="M6393 2517 c-24 -53 -127 -201 -224 -322 -131 -163 -156 -199 -138
-193 20 6 200 217 266 311 47 66 59 77 84 77 40 0 94 24 135 60 38 33 53 37
72 18 26 -26 11 -54 -70 -131 -89 -84 -129 -103 -203 -92 -26 3 -46 1 -50 -5
-10 -16 41 -30 112 -30 66 0 68 1 141 57 88 68 121 113 124 171 2 57 -22 82
-78 82 -33 0 -51 -7 -76 -29 -36 -31 -97 -65 -104 -58 -3 2 5 25 16 51 23 54
23 56 12 56 -5 0 -13 -10 -19 -23z"/>
<path d="M7460 2527 c0 -18 21 -37 41 -37 22 0 31 13 23 34 -7 20 -64 22 -64
3z"/>
<path d="M3794 1955 c-8 -21 4 -34 36 -37 21 -3 25 1 25 22 0 20 -6 26 -28 28
-18 2 -29 -2 -33 -13z"/>
<path d="M7312 1926 c-8 -18 -8 -28 2 -41 11 -15 13 -15 25 -1 14 17 11 58 -5
63 -6 2 -16 -7 -22 -21z"/>
<path d="M7273 1778 c-5 -7 -18 -57 -27 -111 -19 -101 -15 -126 17 -114 39 15
71 227 36 235 -9 1 -20 -3 -26 -10z"/>
<path d="M5705 1569 c-9 -14 3 -59 15 -59 5 0 12 11 16 24 6 26 -1 46 -16 46
-5 0 -12 -5 -15 -11z"/>
<path d="M6016 1555 c-27 -70 53 -339 146 -492 18 -29 38 -53 46 -53 18 0 12
17 -55 163 -54 119 -99 265 -106 346 -4 46 -20 64 -31 36z"/>
<path d="M2540 1444 c-15 -38 -12 -133 5 -190 27 -89 167 -236 196 -207 8 8
-7 28 -50 69 -88 83 -120 152 -123 266 -3 90 -11 108 -28 62z"/>
<path d="M5752 1413 c3 -37 21 -55 31 -30 8 22 -4 67 -20 67 -10 0 -13 -10
-11 -37z"/>
<path d="M5800 1277 c0 -28 103 -167 171 -231 79 -75 155 -124 170 -109 7 7
-11 27 -53 61 -80 64 -143 129 -210 216 -54 70 -78 90 -78 63z"/>
<path d="M4794 1111 c4 -6 4 -36 0 -67 -8 -71 -65 -146 -130 -174 -48 -21 -54
-34 -24 -50 16 -8 30 -6 64 8 78 35 126 129 116 231 -3 34 -10 56 -19 59 -8 3
-11 0 -7 -7z"/>
<path d="M3717 1053 c-3 -27 -10 -65 -15 -85 -12 -45 -1 -49 32 -13 40 44 44
145 6 145 -13 0 -19 -11 -23 -47z"/>
<path d="M2770 1033 c0 -20 50 -73 86 -92 12 -6 47 -14 77 -17 49 -6 56 -10
62 -33 4 -14 13 -40 22 -58 14 -30 13 -38 -11 -120 -37 -129 -70 -285 -105
-488 -17 -99 -33 -190 -36 -203 -5 -19 -1 -22 23 -22 28 0 29 1 41 82 18 117
75 411 108 554 l28 122 29 -23 29 -23 -27 -173 c-29 -191 -56 -430 -56 -496 0
-31 4 -43 14 -43 10 0 16 19 21 68 13 133 46 408 53 435 l7 28 100 -85 c136
-114 302 -283 290 -294 -6 -5 -57 -41 -114 -81 -99 -67 -103 -71 -70 -71 26 0
58 16 129 64 l95 65 66 -65 c48 -48 72 -65 88 -62 19 3 12 12 -50 76 -40 40
-70 74 -68 76 2 2 58 43 124 91 66 49 144 108 173 132 30 24 58 41 63 37 5 -3
9 -97 9 -210 0 -192 1 -204 18 -204 17 0 20 12 25 112 4 62 4 193 1 290 l-6
178 24 -9 c13 -4 24 -17 25 -27 5 -36 43 -507 43 -526 0 -12 7 -18 21 -18 24
0 24 -18 -7 363 -17 220 -18 207 4 207 37 0 137 41 165 68 36 34 60 79 47 87
-5 3 -31 -14 -57 -38 -61 -56 -116 -77 -199 -77 -52 0 -74 5 -110 26 -47 28
-56 24 -25 -10 16 -17 20 -37 21 -96 1 -41 1 -80 1 -87 -1 -6 -13 -14 -28 -18
-16 -3 -100 -57 -188 -120 -88 -63 -164 -115 -169 -115 -4 0 -59 49 -121 108
-61 59 -148 136 -191 170 -142 112 -132 99 -127 164 l5 58 27 -14 c43 -23 97
-29 135 -16 35 11 38 10 84 -31 51 -45 114 -78 150 -79 30 0 71 22 101 54 l24
25 36 -25 c53 -35 113 -33 152 6 42 41 29 53 -30 29 -46 -20 -50 -20 -81 -4
-17 9 -36 29 -41 45 -13 37 -45 29 -64 -16 -7 -18 -32 -45 -54 -60 -38 -24
-45 -26 -79 -16 -43 13 -123 75 -146 113 l-16 27 -40 -20 c-34 -17 -44 -18
-75 -8 -81 27 -180 133 -206 221 -11 34 -13 35 -58 35 -50 0 -94 20 -153 66
-34 26 -38 27 -38 11z"/>
<path d="M4552 848 c-11 -24 -37 -60 -58 -81 -37 -37 -41 -39 -86 -33 -43 6
-48 5 -48 -13 0 -28 38 -51 83 -51 32 0 45 6 73 37 49 54 97 152 83 169 -18
22 -27 17 -47 -28z"/>
<path d="M1740 853 c0 -20 89 -266 100 -277 9 -8 10 -3 5 24 -14 64 -83 254
-94 258 -6 2 -11 0 -11 -5z"/>
</g>
</svg>
